<svg id="visual" viewBox="0 0 960 540" width="960" height="540" xmlns="http://www.w3.org/2000/svg" xmlns:xlink="http://www.w3.org/1999/xlink" version="1.1"><rect x="0" y="0" width="960" height="540" fill="#001220"></rect><defs><linearGradient id="grad1_0" x1="43.8%" y1="0%" x2="100%" y2="100%"><stop offset="14.444444444444446%" stop-color="#001220" stop-opacity="1"></stop><stop offset="85.55555555555554%" stop-color="#001220" stop-opacity="1"></stop></linearGradient></defs><defs><linearGradient id="grad2_0" x1="0%" y1="0%" x2="56.3%" y2="100%"><stop offset="14.444444444444446%" stop-color="#001220" stop-opacity="1"></stop><stop offset="85.55555555555554%" stop-color="#001220" stop-opacity="1"></stop></linearGradient></defs><g transform="translate(960, 0)"><path d="M0 486C-46.4 437.9 -92.9 389.9 -154.6 373.2C-216.3 356.6 -293.3 371.5 -343.7 343.7C-394 315.8 -417.7 245.4 -437 181C-456.3 116.6 -471.1 58.3 -486 0L0 0Z" fill="#533cfa"></path></g><g transform="translate(0, 540)"><path d="M0 -486C66 -482.7 132.1 -479.5 186 -449C239.9 -418.5 281.7 -360.8 306.9 -306.9C332.1 -253 340.6 -202.8 367.7 -152.3C394.8 -101.8 440.4 -50.9 486 0L0 0Z" fill="#533cfa"></path></g></svg>