<svg id="visual" viewBox="0 0 540 960" width="540" height="960" xmlns="http://www.w3.org/2000/svg" xmlns:xlink="http://www.w3.org/1999/xlink" version="1.1"><rect x="0" y="0" width="540" height="960" fill="#001220"></rect><path d="M0 640L12.8 645.2C25.7 650.3 51.3 660.7 77 669.7C102.7 678.7 128.3 686.3 154 678.5C179.7 670.7 205.3 647.3 231.2 626.7C257 606 283 588 308.8 586.3C334.7 584.7 360.3 599.3 386 606.3C411.7 613.3 437.3 612.7 463 611.2C488.7 609.7 514.3 607.3 527.2 606.2L540 605L540 961L527.2 961C514.3 961 488.7 961 463 961C437.3 961 411.7 961 386 961C360.3 961 334.7 961 308.8 961C283 961 257 961 231.2 961C205.3 961 179.7 961 154 961C128.3 961 102.7 961 77 961C51.3 961 25.7 961 12.8 961L0 961Z" fill="#fa7268"></path><path d="M0 634L12.8 642.3C25.7 650.7 51.3 667.3 77 674.2C102.7 681 128.3 678 154 686.8C179.7 695.7 205.3 716.3 231.2 713.7C257 711 283 685 308.8 678.5C334.7 672 360.3 685 386 680C411.7 675 437.3 652 463 652.2C488.7 652.3 514.3 675.7 527.2 687.3L540 699L540 961L527.2 961C514.3 961 488.7 961 463 961C437.3 961 411.7 961 386 961C360.3 961 334.7 961 308.8 961C283 961 257 961 231.2 961C205.3 961 179.7 961 154 961C128.3 961 102.7 961 77 961C51.3 961 25.7 961 12.8 961L0 961Z" fill="#de526c"></path><path d="M0 736L12.8 733.3C25.7 730.7 51.3 725.3 77 734.7C102.7 744 128.3 768 154 776.5C179.7 785 205.3 778 231.2 780.8C257 783.7 283 796.3 308.8 786.2C334.7 776 360.3 743 386 734.5C411.7 726 437.3 742 463 744.8C488.7 747.7 514.3 737.3 527.2 732.2L540 727L540 961L527.2 961C514.3 961 488.7 961 463 961C437.3 961 411.7 961 386 961C360.3 961 334.7 961 308.8 961C283 961 257 961 231.2 961C205.3 961 179.7 961 154 961C128.3 961 102.7 961 77 961C51.3 961 25.7 961 12.8 961L0 961Z" fill="#bc386f"></path><path d="M0 822L12.8 817.2C25.7 812.3 51.3 802.7 77 797C102.7 791.3 128.3 789.7 154 791.3C179.7 793 205.3 798 231.2 800C257 802 283 801 308.8 799.3C334.7 797.7 360.3 795.3 386 793C411.7 790.7 437.3 788.3 463 793C488.7 797.7 514.3 809.3 527.2 815.2L540 821L540 961L527.2 961C514.3 961 488.7 961 463 961C437.3 961 411.7 961 386 961C360.3 961 334.7 961 308.8 961C283 961 257 961 231.2 961C205.3 961 179.7 961 154 961C128.3 961 102.7 961 77 961C51.3 961 25.7 961 12.8 961L0 961Z" fill="#95256f"></path><path d="M0 893L12.8 891.2C25.7 889.3 51.3 885.7 77 886C102.7 886.3 128.3 890.7 154 895C179.7 899.3 205.3 903.7 231.2 898.3C257 893 283 878 308.8 878.8C334.7 879.7 360.3 896.3 386 896.2C411.7 896 437.3 879 463 873C488.7 867 514.3 872 527.2 874.5L540 877L540 961L527.2 961C514.3 961 488.7 961 463 961C437.3 961 411.7 961 386 961C360.3 961 334.7 961 308.8 961C283 961 257 961 231.2 961C205.3 961 179.7 961 154 961C128.3 961 102.7 961 77 961C51.3 961 25.7 961 12.8 961L0 961Z" fill="#691a6b"></path></svg>