<svg id="visual" viewBox="0 0 540 960" width="540" height="960" xmlns="http://www.w3.org/2000/svg" xmlns:xlink="http://www.w3.org/1999/xlink" version="1.1"><rect x="0" y="0" width="540" height="960" fill="#002233"></rect><path d="M0 319L77 319L77 312L154 312L154 131L231 131L231 268L309 268L309 232L386 232L386 274L463 274L463 257L540 257L540 143L540 0L540 0L463 0L463 0L386 0L386 0L309 0L309 0L231 0L231 0L154 0L154 0L77 0L77 0L0 0Z" fill="#0066FF" stroke-linecap="square" stroke-linejoin="miter"></path></svg>