<svg id="visual" viewBox="0 0 900 600" width="900" height="600" xmlns="http://www.w3.org/2000/svg" xmlns:xlink="http://www.w3.org/1999/xlink" version="1.1"><rect x="0" y="0" width="900" height="600" fill="#002233"></rect><path d="M0 199L129 199L129 194L257 194L257 82L386 82L386 167L514 167L514 144L643 144L643 171L771 171L771 160L900 160L900 89L900 0L900 0L771 0L771 0L643 0L643 0L514 0L514 0L386 0L386 0L257 0L257 0L129 0L129 0L0 0Z" fill="#0066FF" stroke-linecap="square" stroke-linejoin="miter"></path></svg>